<svg width="145" height="32" viewBox="0 0 145 32" fill="none" xmlns="http://www.w3.org/2000/svg">
  <path d="M26.0665 12.2877H3.44078V7.83991H26.0665V12.2877ZM9.1059 9.63981H3.44078V0.674959H9.1059V9.63981ZM29.3335 20.0757H0V15.5933H29.3335V20.0757ZM17.5167 16.9259H11.8516V10.609H17.5167V16.9259ZM26.3446 31.5673H3.23225V27.0676H26.3446V31.5673ZM8.89737 29.4386H3.23225V21.616H8.89737V29.4386Z" fill="#2F89FA"/>
  <path d="M53.5608 23.6063H47.9304V0.0346133H53.5608V23.6063ZM57.5924 13.43H52.0315V8.80909H57.5924V13.43ZM54.6208 31.5673H32.3079V27.0676H54.6208V31.5673ZM38.0078 28.5041H32.3079V21.6506H38.0078V28.5041ZM31.6997 14.7972C35.291 14.7972 38.1178 14.7337 40.18 14.6068C42.2421 14.4799 44.2579 14.2261 46.2274 13.8453L46.7661 18.3277C44.7966 18.697 42.6997 18.945 40.4754 19.0719C38.2626 19.1988 35.3374 19.2623 31.6997 19.2623H28.8497V14.7972H31.6997ZM43.7771 12.5127H34.4975V16.424H28.8497V8.39373H38.1815V6.29962H28.8497V1.85181H43.7771V12.5127Z" fill="#2F89FA"/>
  <path d="M89.4165 32H84.0294V0H89.4165V32ZM78.8682 15.1433H74.0199V10.5744H78.8682V15.1433ZM82.7261 30.6847H77.4606V0.380746H82.7261V30.6847ZM70.805 8.16874C70.805 10.8224 70.5849 13.3088 70.1446 15.6279C69.716 17.947 68.9919 20.0411 67.9724 21.9102C66.9529 23.7793 65.5859 25.2446 63.8713 26.3061L60.5522 22.1871C62.093 21.1949 63.3094 19.9546 64.2015 18.4662C65.1051 16.9778 65.7249 15.3798 66.0609 13.6723C66.3969 11.9647 66.5648 10.1302 66.5648 8.16874V5.36506H70.805V8.16874ZM72.0562 8.16874C72.0562 10.0955 72.2242 11.8781 72.5601 13.5165C72.8961 15.1433 73.5043 16.6548 74.3848 18.0508C75.2653 19.4354 76.4701 20.5718 77.9993 21.4602L74.7671 25.51C73.0293 24.5178 71.6507 23.1448 70.6312 21.391C69.6233 19.6257 68.9108 17.6412 68.4938 15.4375C68.0883 13.2338 67.8855 10.8109 67.8855 8.16874V5.36506H72.0562V8.16874ZM76.1747 7.40725H61.925V2.8729H76.1747V7.40725Z" fill="#2F89FA"/>
  <path d="M118.631 28.5733H89.2976V24.0043H118.631V28.5733ZM106.797 25.2331H101.132V17.3586H106.797V25.2331ZM105.702 4.91509C105.702 7.30341 105.233 9.4552 104.295 11.3705C103.356 13.2742 101.902 14.8895 99.9327 16.2163C97.9633 17.5316 95.4783 18.4431 92.4777 18.9508L90.2534 14.4684C92.8485 14.0876 94.9396 13.4127 96.5267 12.4435C98.1255 11.4743 99.2608 10.3436 99.9327 9.05138C100.605 7.75915 100.941 6.38039 100.941 4.91509V4.27474H105.702V4.91509ZM106.919 4.91509C106.919 6.38039 107.255 7.74184 107.926 8.99946C108.598 10.2571 109.745 11.3647 111.367 12.3223C113.001 13.2684 115.144 13.9319 117.797 14.3126L115.607 18.7604C112.561 18.2527 110.029 17.3586 108.013 16.0779C105.998 14.7856 104.509 13.1992 103.547 11.3186C102.597 9.43789 102.122 7.30341 102.122 4.91509V4.27474H106.919V4.91509ZM116.111 6.57653H91.7131V2.12872H116.111V6.57653Z" fill="#2F89FA"/>
  <path d="M144.457 32H138.757V0H144.457V32ZM134.76 3.21904C134.76 6.86497 134.343 10.0955 133.509 12.9108C132.687 15.726 131.198 18.3162 129.043 20.6814C126.888 23.0467 123.888 25.1408 120.042 26.9638L117.07 22.516C120.152 21.0622 122.567 19.4815 124.316 17.7739C126.066 16.0548 127.311 14.1222 128.053 11.9762C128.794 9.81864 129.165 7.24572 129.165 4.25744V3.21904H134.76ZM131.893 7.66685H118.964V3.21904H131.893V7.66685Z" fill="#2F89FA"/>
</svg>
