<svg width="82" height="20" viewBox="0 0 82 20" fill="none" xmlns="http://www.w3.org/2000/svg">
  <path d="M14.6484 7.90527H1.93359V5.39551H14.6484V7.90527ZM5.11719 6.41113H1.93359V1.35254H5.11719V6.41113ZM16.4844 12.2998H0V9.77051H16.4844V12.2998ZM9.84375 10.5225H6.66016V6.95801H9.84375V10.5225ZM14.8047 18.7842H1.81641V16.2451H14.8047V18.7842ZM5 17.583H1.81641V13.1689H5V17.583Z" fill="#2F89FA"/>
  <path d="M30.0992 14.292H26.9352V0.991211H30.0992V14.292ZM32.3648 8.5498H29.2398V5.94238H32.3648V8.5498ZM30.6949 18.7842H18.1559V16.2451H30.6949V18.7842ZM21.359 17.0557H18.1559V13.1885H21.359V17.0557ZM17.8141 9.32129C19.8323 9.32129 21.4208 9.28548 22.5797 9.21387C23.7385 9.14225 24.8714 8.99902 25.9781 8.78418L26.2809 11.3135C25.1741 11.5218 23.9957 11.6618 22.7457 11.7334C21.5022 11.805 19.8583 11.8408 17.8141 11.8408H16.2125V9.32129H17.8141ZM24.6012 8.03223H19.3863V10.2393H16.2125V5.70801H21.4566V4.52637H16.2125V2.0166H24.6012V8.03223Z" fill="#2F89FA"/>
  <path d="M50.2488 19.0283H47.2215V0.97168H50.2488V19.0283ZM44.3211 9.5166H41.5965V6.93848H44.3211V9.5166ZM46.4891 18.2861H43.5301V1.18652H46.4891V18.2861ZM39.7898 5.58105C39.7898 7.07845 39.6661 8.48145 39.4188 9.79004C39.1779 11.0986 38.771 12.2803 38.198 13.335C37.6251 14.3896 36.8569 15.2165 35.8934 15.8154L34.0281 13.4912C34.894 12.9313 35.5776 12.2314 36.0789 11.3916C36.5867 10.5518 36.935 9.65007 37.1238 8.68652C37.3126 7.72298 37.407 6.68783 37.407 5.58105V3.99902H39.7898V5.58105ZM40.493 5.58105C40.493 6.66829 40.5874 7.67415 40.7762 8.59863C40.965 9.5166 41.3068 10.3695 41.8016 11.1572C42.2964 11.9385 42.9734 12.5798 43.8328 13.0811L42.0164 15.3662C41.0398 14.8063 40.2651 14.0316 39.6922 13.042C39.1258 12.0459 38.7254 10.9261 38.491 9.68262C38.2632 8.43913 38.1492 7.07194 38.1492 5.58105V3.99902H40.493V5.58105ZM42.8074 5.15137H34.7996V2.59277H42.8074V5.15137Z" fill="#2F89FA"/>
  <path d="M66.6664 17.0947H50.182V14.5166H66.6664V17.0947ZM60.016 15.21H56.8324V10.7666H60.016V15.21ZM59.4008 3.74512C59.4008 5.09277 59.1371 6.30697 58.6098 7.3877C58.0824 8.46191 57.2654 9.37337 56.1586 10.1221C55.0518 10.8643 53.6553 11.3786 51.9691 11.665L50.7191 9.13574C52.1775 8.9209 53.3526 8.54004 54.2445 7.99316C55.143 7.44629 55.781 6.80827 56.1586 6.0791C56.5362 5.34993 56.725 4.57194 56.725 3.74512V3.38379H59.4008V3.74512ZM60.0844 3.74512C60.0844 4.57194 60.2732 5.34017 60.6508 6.0498C61.0284 6.75944 61.6729 7.38444 62.5844 7.9248C63.5023 8.45866 64.7068 8.83301 66.1977 9.04785L64.9672 11.5576C63.2549 11.2712 61.8324 10.7666 60.6996 10.0439C59.5668 9.31478 58.7302 8.4196 58.1898 7.3584C57.656 6.2972 57.3891 5.09277 57.3891 3.74512V3.38379H60.0844V3.74512ZM65.2504 4.68262H51.5395V2.17285H65.2504V4.68262Z" fill="#2F89FA"/>
  <path d="M81.1797 19.0283H77.9766V0.97168H81.1797V19.0283ZM75.7305 2.78809C75.7305 4.84538 75.4961 6.66829 75.0273 8.25684C74.5651 9.84538 73.7285 11.307 72.5176 12.6416C71.3066 13.9762 69.6204 15.1579 67.459 16.1865L65.7891 13.6768C67.5208 12.8564 68.8783 11.9645 69.8613 11.001C70.8444 10.0309 71.5443 8.94043 71.9609 7.72949C72.3776 6.51204 72.5859 5.06022 72.5859 3.37402V2.78809H75.7305ZM74.1191 5.29785H66.8535V2.78809H74.1191V5.29785Z" fill="#2F89FA"/>
</svg>

