<svg width="25" height="24" viewBox="0 0 25 24" fill="none" xmlns="http://www.w3.org/2000/svg">
  <mask id="mask0_239_8" style="mask-type:alpha" maskUnits="userSpaceOnUse" x="0" y="0" width="25" height="24">
    <rect x="0.5" width="24" height="24" fill="#D9D9D9"/>
  </mask>
  <g mask="url(#mask0_239_8)">
    <path d="M11.75 12.75H6.75C6.5375 12.75 6.35942 12.6781 6.21575 12.5342C6.07192 12.3904 6 12.2122 6 11.9997C6 11.7871 6.07192 11.609 6.21575 11.4655C6.35942 11.3218 6.5375 11.25 6.75 11.25H11.75V6.25C11.75 6.0375 11.8219 5.85942 11.9658 5.71575C12.1096 5.57192 12.2878 5.5 12.5003 5.5C12.7129 5.5 12.891 5.57192 13.0345 5.71575C13.1782 5.85942 13.25 6.0375 13.25 6.25V11.25H18.25C18.4625 11.25 18.6406 11.3219 18.7843 11.4658C18.9281 11.6096 19 11.7878 19 12.0003C19 12.2129 18.9281 12.391 18.7843 12.5345C18.6406 12.6782 18.4625 12.75 18.25 12.75H13.25V17.75C13.25 17.9625 13.1781 18.1406 13.0342 18.2843C12.8904 18.4281 12.7122 18.5 12.4997 18.5C12.2871 18.5 12.109 18.4281 11.9655 18.2843C11.8218 18.1406 11.75 17.9625 11.75 17.75V12.75Z" fill="#7C848A"/>
  </g>
</svg>
