<svg width="16" height="16" viewBox="0 0 16 16" fill="none" xmlns="http://www.w3.org/2000/svg">
  <mask id="mask0_215_236" style="mask-type:alpha" maskUnits="userSpaceOnUse" x="0" y="0" width="16" height="16">
    <rect width="16" height="16" fill="#D9D9D9"/>
  </mask>
  <g mask="url(#mask0_215_236)">
    <path d="M9.88709 8.00004L4.86526 2.97821C4.73282 2.84576 4.66832 2.6881 4.67176 2.50521C4.67521 2.32232 4.74315 2.1646 4.8756 2.03204C5.00804 1.8996 5.16571 1.83337 5.3486 1.83337C5.53148 1.83337 5.68921 1.8996 5.82176 2.03204L10.9256 7.14621C11.046 7.26676 11.1353 7.40182 11.1934 7.55137C11.2516 7.70093 11.2808 7.85049 11.2808 8.00004C11.2808 8.1496 11.2516 8.29915 11.1934 8.44871C11.1353 8.59826 11.046 8.73332 10.9256 8.85387L5.81143 13.968C5.67898 14.1005 5.52304 14.165 5.3436 14.1615C5.16404 14.1581 5.00804 14.0902 4.8756 13.9577C4.74315 13.8253 4.67693 13.6676 4.67693 13.4847C4.67693 13.3018 4.74315 13.1441 4.8756 13.0115L9.88709 8.00004Z" fill="#7C848A"/>
  </g>
</svg>
