<svg width="24" height="25" viewBox="0 0 24 25" fill="none" xmlns="http://www.w3.org/2000/svg">
  <mask id="mask0_215_74" style="mask-type:alpha" maskUnits="userSpaceOnUse" x="0" y="0" width="24" height="25">
    <rect y="0.5" width="24" height="24" fill="#D9D9D9"/>
  </mask>
  <g mask="url(#mask0_215_74)">
    <path d="M16.6115 13.25H5.25C5.03717 13.25 4.859 13.1782 4.7155 13.0345C4.57183 12.891 4.5 12.7129 4.5 12.5C4.5 12.2872 4.57183 12.109 4.7155 11.9655C4.859 11.8219 5.03717 11.75 5.25 11.75H16.6115L13.3193 8.45777C13.1706 8.30894 13.0972 8.13485 13.099 7.93552C13.101 7.73619 13.1744 7.55894 13.3193 7.40377C13.4744 7.24877 13.6526 7.16869 13.8538 7.16352C14.0551 7.15835 14.2333 7.23335 14.3885 7.38852L18.8673 11.8673C18.9609 11.9609 19.0269 12.0597 19.0652 12.1635C19.1037 12.2674 19.123 12.3795 19.123 12.5C19.123 12.6205 19.1037 12.7327 19.0652 12.8365C19.0269 12.9404 18.9609 13.0391 18.8673 13.1328L14.3885 17.6115C14.2397 17.7602 14.0631 17.8336 13.8587 17.8318C13.6542 17.8298 13.4744 17.7513 13.3193 17.5963C13.1744 17.4411 13.0994 17.2654 13.0943 17.0693C13.0891 16.8731 13.1641 16.6974 13.3193 16.5423L16.6115 13.25Z" fill="#7C848A"/>
  </g>
</svg>
