<svg width="24" height="24" viewBox="0 0 24 24" fill="none" xmlns="http://www.w3.org/2000/svg">
  <mask id="mask0_215_49" style="mask-type:alpha" maskUnits="userSpaceOnUse" x="0" y="0" width="24" height="24">
    <rect width="24" height="24" fill="#D9D9D9"/>
  </mask>
  <g mask="url(#mask0_215_49)">
    <path d="M11.9983 21.6923C11.5008 21.6923 11.0754 21.5153 10.7223 21.1613C10.3689 20.8073 10.1923 20.3817 10.1923 19.8845H13.8077C13.8077 20.3833 13.6306 20.8093 13.2762 21.1625C12.9219 21.5157 12.4959 21.6923 11.9983 21.6923ZM5.25 18.8845C5.0375 18.8845 4.85942 18.8127 4.71575 18.669C4.57192 18.5252 4.5 18.3469 4.5 18.1343C4.5 17.9218 4.57192 17.7437 4.71575 17.6C4.85942 17.4565 5.0375 17.3848 5.25 17.3848H6.30775V9.923C6.30775 8.57817 6.72283 7.38908 7.553 6.35575C8.383 5.32242 9.44867 4.6615 10.75 4.373V3.75C10.75 3.40283 10.8714 3.10767 11.1143 2.8645C11.3571 2.6215 11.6519 2.5 11.9988 2.5C12.3458 2.5 12.641 2.6215 12.8845 2.8645C13.1282 3.10767 13.25 3.40283 13.25 3.75V3.95C13.0192 4.32183 12.8428 4.7205 12.721 5.146C12.5993 5.57167 12.5385 6.007 12.5385 6.452C12.5385 7.80967 13.0147 8.96958 13.9672 9.93175C14.9197 10.8939 16.0717 11.3814 17.423 11.3943H17.5577C17.6026 11.3943 17.6474 11.3911 17.6923 11.3848V17.3848H18.75C18.9625 17.3848 19.1406 17.4566 19.2843 17.6003C19.4281 17.7441 19.5 17.9223 19.5 18.135C19.5 18.3475 19.4281 18.5256 19.2843 18.6693C19.1406 18.8128 18.9625 18.8845 18.75 18.8845H5.25Z" fill="#141414"/>
    <path d="M17.4817 9.20203C16.7182 9.20203 16.0689 8.93478 15.5337 8.40028C14.9984 7.86578 14.7307 7.21669 14.7307 6.45303C14.7307 5.68953 14.998 5.04011 15.5325 4.50478C16.067 3.96961 16.716 3.70203 17.4795 3.70203C18.2431 3.70203 18.8925 3.96928 19.4277 4.50378C19.963 5.03828 20.2307 5.68728 20.2307 6.45078C20.2307 7.21444 19.9635 7.86386 19.429 8.39903C18.8945 8.93436 18.2454 9.20203 17.4817 9.20203Z" fill="#FA2C21"/>
  </g>
</svg>
